<?xml version="1.0" standalone="no"?>
<!DOCTYPE svg PUBLIC "-//W3C//DTD SVG 20010904//EN"
 "http://www.w3.org/TR/2001/REC-SVG-20010904/DTD/svg10.dtd">
<svg version="1.0" xmlns="http://www.w3.org/2000/svg"
 width="400.000000pt" height="400.000000pt" viewBox="0 0 400.000000 400.000000"
 preserveAspectRatio="xMidYMid meet">
<metadata>
Created by potrace 1.16, written by Peter Selinger 2001-2019
</metadata>
<g transform="translate(0.000000,400.000000) scale(0.100000,-0.100000)"
fill="#000000" stroke="none">
<path d="M1504 3786 c-126 -29 -279 -103 -396 -193 -82 -62 -80 -69 5 -13 105
70 219 125 322 156 85 26 101 27 305 28 231 1 299 -8 437 -60 36 -13 62 -20
59 -15 -9 13 -152 68 -228 87 -89 22 -421 29 -504 10z"/>
<path d="M1685 3519 c-90 -12 -247 -54 -305 -81 -47 -23 -144 -115 -244 -231
-69 -80 -141 -131 -229 -161 -116 -41 -57 -71 88 -46 107 19 181 47 289 108
54 30 135 68 180 83 44 15 75 28 67 29 -37 1 -149 -38 -261 -90 -116 -54 -207
-87 -216 -77 -2 2 14 18 36 36 22 18 81 83 130 146 112 140 157 175 291 219
89 29 147 42 329 69 53 8 -89 4 -155 -4z"/>
<path d="M2145 3289 c124 -18 189 -58 228 -141 41 -84 44 -157 13 -266 -29
-100 -33 -193 -11 -277 12 -49 12 -48 7 40 -4 86 -2 96 38 215 48 144 49 195
4 287 -49 102 -141 154 -268 152 l-71 -1 60 -9z"/>
<path d="M2978 3192 c-57 -59 -82 -117 -86 -197 -2 -41 3 -89 11 -115 l14 -45
7 60 c11 83 51 237 76 286 12 22 20 43 18 45 -3 2 -20 -13 -40 -34z"/>
<path d="M190 3207 c0 -11 98 -166 146 -229 l44 -56 -33 -21 c-18 -11 -42 -30
-53 -42 -18 -20 -16 -20 31 4 87 45 87 45 218 -63 4 -4 -31 -22 -79 -40 -151
-59 -228 -120 -278 -219 -70 -139 -58 -289 37 -479 53 -104 77 -139 189 -274
136 -162 215 -307 290 -533 60 -179 55 -273 -30 -560 -28 -96 -35 -137 -36
-207 0 -78 3 -90 29 -134 23 -36 45 -56 95 -82 63 -34 69 -35 200 -40 123 -4
148 -1 280 27 80 17 177 40 215 51 39 11 160 43 270 70 236 58 485 141 628
208 146 69 398 227 475 297 69 63 112 136 112 190 0 136 -207 549 -574 1145
-146 238 -368 571 -414 622 -44 49 -114 74 -259 93 -312 41 -586 22 -811 -56
-31 -11 -88 -27 -127 -35 -38 -8 -78 -17 -89 -20 -17 -6 -18 2 -13 168 2 95 8
184 11 198 5 18 5 21 -2 10 -19 -28 -41 -135 -52 -250 -7 -63 -13 -116 -15
-118 -6 -6 -47 19 -112 66 -35 25 -94 84 -133 131 -90 112 -159 188 -160 178z
m1504 -342 c126 -19 171 -33 199 -61 30 -30 214 -297 321 -467 86 -136 87
-139 69 -159 -62 -69 -276 -111 -631 -125 -104 -4 -165 -10 -167 -17 -2 -6
-14 -43 -25 -83 -20 -67 -25 -74 -73 -106 -45 -30 -65 -36 -152 -46 -55 -7
-127 -19 -159 -27 -33 -9 -74 -13 -92 -9 -24 4 -46 -1 -82 -19 -47 -24 -53
-24 -144 -16 -131 13 -176 24 -207 54 -15 14 -35 26 -44 26 -26 0 -161 174
-211 271 -65 127 -90 218 -83 301 7 83 46 165 100 215 58 52 186 108 339 148
73 19 167 45 208 57 261 74 362 89 575 83 88 -3 204 -11 259 -20z m951 -1646
c33 -25 86 -62 117 -82 38 -24 64 -50 77 -75 l20 -39 -30 -41 c-30 -41 -160
-134 -322 -231 -217 -130 -492 -232 -860 -320 -67 -16 -183 -45 -257 -64 -439
-116 -690 -76 -690 110 0 22 15 94 34 160 19 65 44 162 56 216 12 53 25 97 30
97 4 0 45 7 91 15 112 19 211 54 324 114 52 27 96 47 99 44 2 -3 -4 -25 -14
-49 -11 -24 -26 -66 -34 -92 l-14 -49 131 28 c88 19 196 34 324 43 191 14 192
14 300 59 197 82 296 128 339 158 63 43 82 49 154 46 61 -2 70 -6 125 -48z"/>
<path d="M3043 1137 c-2 -84 -23 -150 -74 -223 -43 -63 -118 -137 -186 -181
-29 -20 -53 -37 -53 -39 0 -8 94 38 145 71 132 84 188 180 188 320 0 108 -18
155 -20 52z"/>
</g>
</svg>
